# xmcd
#
# Track frame offsets: 
#        150
#        13384
#        27577
#        40985
#        53330
#        67715
#        81132
#        93555
#        106242
#        120025
#        135227
#        149930
#        164100
#        175892
#        190655
#        202917
#        211692
#        223102
#        237400
#        244700
#        265502
#        271545
#        279677
#        293547
#        305745
#        318405
#
# Disc length: 4354 seconds
#
# Revision: 0
# Processed by: cddbd v1.5.2PL0 Copyright (c) Steve Scherf et al.
# Submitted via: ExactAudioCopy v1.0b1
#
DISCID=7111001a
DTITLE=Blind Willie McTell - Georgia Rag [CD2]
DYEAR=1900
DGENRE=Blues
TTITLE0=Southern Can Mama
TTITLE1=Ain't it Grand to Be a Christian
TTITLE2=We Got to Meet Death One Day
TTITLE3=Don't Let Nobody Turn You Around
TTITLE4=I Got Religion, I'm So Glad
TTITLE5=Dying Gambler
TTITLE6=God Don't Like It
TTITLE7=Bell Street Blues
TTITLE8=Let Me Play With Yo' Yo-Yo
TTITLE9=Lay Some Flowers on My Grave
TTITLE10=Ticket Agent Blues
TTITLE11=Cold Winter Day
TTITLE12=Your Time to Worry
TTITLE13=Cooling Board Blues
TTITLE14=Hillbilly Willie's Blues
TTITLE15=Boll Weevil
TTITLE16=Delia
TTITLE17=Dying Crapshooter's Blues
TTITLE18=Will Fox
TTITLE19=I Got to Cross the River Jordan
TTITLE20=Amazing Grace
TTITLE21=King Edward Blues
TTITLE22=Murderer's Home Blues
TTITLE23=Kill-It-Kid Rag
TTITLE24=Chainey
TTITLE25=I Got to Cross the River of Jordan
EXTD=
EXTT0=
EXTT1=
EXTT2=
EXTT3=
EXTT4=
EXTT5=
EXTT6=
EXTT7=
EXTT8=
EXTT9=
EXTT10=
EXTT11=
EXTT12=
EXTT13=
EXTT14=
EXTT15=
EXTT16=
EXTT17=
EXTT18=
EXTT19=
EXTT20=
EXTT21=
EXTT22=
EXTT23=
EXTT24=
EXTT25=
PLAYORDER=
